<svg width="34" height="38" viewBox="0 0 34 38" fill="none" xmlns="http://www.w3.org/2000/svg">
<path d="M7.55808 37.9526C5.7801 37.6792 4.09466 36.9298 2.82652 35.8489C1.97218 35.1207 1.2035 33.9728 0.811871 32.8405C-0.00924369 30.4663 0.786331 27.9279 2.6475 26.9837C3.0366 26.7863 3.44696 26.6945 3.94401 26.6938C4.34374 26.6932 4.91793 26.7832 4.99844 26.8591C5.01685 26.8765 4.93835 26.9793 4.82399 27.0876C4.54302 27.3536 4.23702 27.749 4.13963 27.9719C3.96042 28.3819 3.96155 28.8837 4.14226 29.1405C4.41293 29.5253 5.12547 29.5169 5.45289 29.1251C5.96349 28.5141 5.8831 27.4099 5.21783 25.8963C5.02885 25.4664 5.00027 25.4255 4.68997 25.1417C4.50954 24.9766 4.15386 24.6667 3.89957 24.4528C2.76183 23.4961 1.83978 22.2832 1.10432 20.7757C0.42582 19.385 0.000386294 17.8624 3.41364e-07 16.8235C-0.000514262 15.4363 0.580814 14.3063 1.58788 13.7369C1.87148 13.5766 2.37658 13.4113 2.70581 13.3711C2.83422 13.3554 2.93278 13.3302 2.92485 13.3152C2.75613 12.9959 2.59642 12.592 2.53298 12.3242C2.43554 11.9128 2.42675 11.3108 2.51316 10.9667C2.59418 10.6441 2.82049 10.1819 2.96694 10.04L3.08504 9.92555L3.1051 10.8335C3.12811 11.8753 3.17825 12.1713 3.41738 12.6775C3.62114 13.1088 3.91315 13.4266 4.47529 13.8287C5.20666 14.3518 5.56996 14.7281 5.87853 15.282C6.1855 15.833 6.4315 16.6071 6.4321 17.024L6.43238 17.2196L6.30717 17.146C6.02573 16.9808 5.75784 16.6563 5.52906 16.2036C5.2315 15.6148 5.02655 15.2996 4.75116 15.0074C4.18867 14.4104 3.60795 14.1418 2.89449 14.1483C2.09967 14.1557 1.36278 14.6301 1.01198 15.3604C0.792329 15.8176 0.71528 16.1834 0.711351 16.7877C0.707403 17.3944 0.76438 17.7405 1.00566 18.5757C1.77263 21.2306 3.31551 23.3431 5.60822 24.8773C5.87356 25.0548 6.19921 25.2558 6.33188 25.324L6.5731 25.4478L6.27157 25.5488C6.10573 25.6044 5.96269 25.6563 5.95371 25.6642C5.94472 25.6721 6.03914 25.9855 6.16352 26.3606C6.28791 26.7358 6.41945 27.2167 6.45583 27.4293C6.65954 28.6197 6.21852 29.7759 5.4072 30.1785C5.18679 30.2879 5.12955 30.2983 4.74384 30.2983C4.36453 30.2983 4.29883 30.2869 4.09619 30.1862C3.82957 30.0536 3.50685 29.723 3.36235 29.4344C3.12867 28.9676 3.14321 28.3183 3.40065 27.7241L3.49332 27.5102L3.38487 27.5362C2.4185 27.7683 1.64349 28.6298 1.31869 29.833C1.23721 30.1349 1.22621 30.2668 1.22738 30.929C1.22858 31.6093 1.23918 31.7241 1.33739 32.1203C1.68006 33.5026 2.47996 34.7115 3.61611 35.5642C5.15154 36.7166 7.08475 37.3399 8.88479 37.2631C9.96698 37.2169 10.6193 37.0637 12.2754 36.4669L12.6307 36.3389L13.0393 36.4403C13.6838 36.6002 14.064 36.6399 14.7109 36.6151C16.1568 36.5595 17.8066 36.0106 19.3578 35.0692C20.2832 34.5075 21.0209 33.9109 21.9324 32.9868C23.696 31.1988 25.0243 29.0358 25.9077 26.5137C26.0096 26.2227 26.1078 25.9572 26.1259 25.9236C26.1441 25.89 26.3926 25.7375 26.6782 25.5848C27.7559 25.0082 28.5999 24.3656 29.5712 23.3822C30.4548 22.4876 31.055 21.717 31.6443 20.7202C32.5464 19.1947 33.0907 17.5691 33.213 16.036C33.2935 15.0258 33.167 14.2426 32.7988 13.471C32.6277 13.1127 32.5478 12.9973 32.3032 12.7561C31.9958 12.4527 31.5836 12.2109 31.2379 12.1312C30.1607 11.8827 28.9422 12.6071 28.6175 13.689C28.546 13.9274 28.5364 14.0358 28.5559 14.3843C28.5882 14.9618 28.5169 15.1064 28.0256 15.4599C27.9283 15.5299 27.8379 15.5872 27.8246 15.5871C27.8113 15.5871 27.8005 14.9691 27.8005 14.2137C27.8005 12.4634 27.7119 11.5962 27.4191 10.48C27.0717 9.15525 26.3415 7.69524 25.4858 6.61401C25.3441 6.43496 25.0106 6.06871 24.7446 5.80012C22.9802 4.01844 20.7894 2.8738 18.3958 2.48303C17.7434 2.37652 16.7229 2.31105 16.1817 2.34098C15.0054 2.40603 14.4709 2.48414 13.468 2.73749C12.8917 2.88308 12.744 2.90545 12.3423 2.90794C11.8271 2.91114 11.6273 2.86812 11.1965 2.66127C10.7731 2.45798 10.3998 2.15706 10.1625 1.82793C9.92011 1.49164 9.91819 1.4924 9.75634 1.98809C9.54568 2.63328 9.53579 3.35957 9.72991 3.93066C9.80284 4.14524 10.0485 4.63515 10.2064 4.88088L10.2694 4.97901L10.0963 4.9555C9.84813 4.92181 9.30313 4.64496 8.80892 4.30153C8.28542 3.93774 8.10155 3.83014 7.73357 3.67226C6.55881 3.16822 5.28868 3.28417 4.01794 4.01146C3.70191 4.19234 2.76877 4.75935 2.73368 4.79183C2.69822 4.82464 3.22204 5.29964 3.74998 5.7134C5.00613 6.69789 5.57301 7.41013 5.94047 8.46562C6.15769 9.08957 6.20961 9.40259 6.21047 10.0934C6.21117 10.6501 6.20023 10.7565 6.11729 10.9996C5.92882 11.5519 5.61669 11.8603 5.19481 11.9108C4.89812 11.9464 4.65668 11.8658 4.42299 11.6531C4.07636 11.3377 4.03012 11.04 4.21882 10.3388C4.40789 9.63615 4.21579 9.07766 3.65995 8.71402C3.39955 8.54366 3.33717 8.52362 2.49246 8.33896C2.17183 8.26888 1.88492 8.19818 1.85486 8.18186C1.78164 8.14211 2.00635 8.00219 2.31753 7.89377C3.07079 7.63132 3.84307 7.83662 4.46403 8.46437C5.03331 9.03988 5.20159 9.64224 5.05864 10.5929C5.0032 10.9615 5.03238 11.0305 5.21603 10.9651C5.29785 10.936 5.35078 10.8675 5.41861 10.7028C5.50249 10.4992 5.50898 10.4326 5.49369 9.93062C5.47445 9.29864 5.37517 8.88605 5.10272 8.30575C4.75795 7.57142 4.23954 7.0078 3.15181 6.1847C2.2253 5.48358 1.94125 5.1448 1.68573 4.43611C1.5242 3.98808 1.5272 3.94755 1.71854 3.99253C1.92433 4.0409 2.40009 4.03847 2.57914 3.98813C2.65999 3.9654 2.92232 3.82625 3.16209 3.67891C4.45623 2.88366 5.08321 2.65967 6.13086 2.61829C7.03147 2.58271 7.7206 2.74098 8.45606 3.15231L8.83342 3.36335L8.85921 2.93361C8.92382 1.857 9.32364 0.911474 10.0005 0.234566L10.2351 0L10.3065 0.315955C10.4703 1.04031 10.8869 1.64947 11.407 1.92517C11.9575 2.21695 12.3908 2.22308 13.5037 1.95482C14.4868 1.71784 15.1224 1.63008 16.0611 1.6017C18.2495 1.53554 20.2374 1.99057 22.2323 3.01431C23.1887 3.5051 23.8257 3.95064 24.7651 4.78582C25.5464 5.48038 26.1239 6.14743 26.7145 7.03733C27.6391 8.43047 28.2039 9.95274 28.4326 11.6679L28.5204 12.3267L28.6831 12.1752C29.0497 11.8335 29.5524 11.5552 30.0224 11.4335C30.3962 11.3368 31.027 11.3298 31.3981 11.4183C32.6236 11.7107 33.5819 12.8956 33.887 14.4958C34.0552 15.3782 34.0357 16.307 33.8281 17.3024C33.6141 18.3285 33.3687 19.0453 32.89 20.0432C31.6313 22.6673 29.6522 24.8071 27.2189 26.1748C26.8213 26.3982 26.751 26.4534 26.7077 26.5755C26.1974 28.0134 25.8968 28.7227 25.4469 29.5504C24.1384 31.9576 22.3287 34.0189 20.3755 35.327C18.8172 36.3706 17.0636 37.0724 15.4428 37.3013C14.7944 37.3928 13.7372 37.3634 13.1256 37.2367L12.6828 37.1449L12.2064 37.3356C11.6296 37.5665 10.9152 37.7687 10.2465 37.8903C9.62847 38.0027 8.11248 38.0378 7.55808 37.9526ZM7.63849 35.9139C6.54316 35.7779 5.59894 35.4342 4.70364 34.8455C4.0142 34.3922 3.48034 33.8826 3.14436 33.357C2.74275 32.7288 2.44409 31.8945 2.39036 31.2506L2.36861 30.9901L2.46522 31.2345C2.90581 32.3493 3.56716 33.0811 4.6119 33.61C5.42422 34.0212 6.43037 34.1406 7.19541 33.9165C7.50439 33.8259 8.01113 33.5841 7.98421 33.54C7.97194 33.5199 7.89216 33.4922 7.80694 33.4784C7.64105 33.4515 6.59856 33.1032 6.33188 32.9855L6.17106 32.9145L6.45249 32.8434C7.40801 32.6018 8.33879 31.9521 8.85308 31.1679C9.01731 30.9174 9.14915 30.6539 9.12316 30.628C9.11367 30.6185 8.97315 30.6547 8.81089 30.7083C8.42238 30.8367 8.07251 30.896 7.79388 30.8805L7.56734 30.868L7.804 30.461C8.38008 29.4705 8.67 28.3002 8.71139 26.7985C8.73275 26.0233 8.66582 25.1818 8.5681 24.997C8.54602 24.9552 8.26255 24.7991 7.93507 24.6484C5.81902 23.6745 4.27817 22.2691 3.05111 20.1935C2.64951 19.5142 2.19652 18.5623 2.03065 18.0492C1.80901 17.3636 1.75771 16.5471 1.90886 16.1108C2.08798 15.5937 2.68235 15.2509 3.16606 15.3857C3.45481 15.4662 3.84539 15.8865 4.22045 16.5203C4.66747 17.2757 4.94672 17.6167 5.48761 18.0676C6.2017 18.6629 7.06022 19.0929 8.08576 19.369C8.66105 19.5238 9.76926 19.6894 9.76926 19.6206C9.76926 19.6016 9.70142 19.54 9.6185 19.4836C9.14768 19.1638 8.54935 18.4664 8.26102 17.9013C7.7059 16.8133 7.4002 15.0377 7.5158 13.5728C7.63863 12.0162 8.11997 10.6224 8.99419 9.29179C9.20788 8.96654 9.8742 8.15823 10.126 7.9188C10.1951 7.85306 10.2517 7.78633 10.2517 7.77052C10.2517 7.7547 10.1184 7.78461 9.95542 7.83699C9.35556 8.02981 8.77952 8.0083 8.23242 7.77264C7.68802 7.53815 7.42006 7.32271 6.49269 6.37395C5.82262 5.68842 5.52738 5.41641 5.27474 5.25185C5.09133 5.13237 4.95581 5.01991 4.97358 5.00193C5.07049 4.90383 5.55048 4.82447 6.03035 4.82721C6.90408 4.83219 7.46613 5.02613 8.33448 5.62227C9.24109 6.24468 9.61045 6.36966 10.5331 6.36623C11.0775 6.3642 11.2757 6.34268 12.1011 6.19599C13.034 6.03017 13.474 5.971 14.1615 5.91889C14.355 5.90423 14.513 5.88066 14.5127 5.86652C14.5115 5.80578 13.8895 5.44102 13.4077 5.21844C12.6737 4.87941 12.2722 4.66947 12.0527 4.50993L11.8637 4.3725L12.3743 4.29855C12.6552 4.25788 13.1745 4.1701 13.5283 4.10348C15.6082 3.71181 16.4488 3.66605 17.8257 3.86952C18.4868 3.96721 19.4459 4.20799 20.0036 4.41626C21.9445 5.14102 23.6845 6.50177 24.7608 8.13664C25.6883 9.54547 26.1686 10.9714 26.4 13.0031C26.4849 13.7488 26.4945 15.6281 26.4187 16.6656C26.0451 21.7775 25.0125 25.7962 23.3419 28.6395C22.7363 29.6701 21.9941 30.6012 20.8661 31.7455C19.7343 32.8937 18.9141 33.5073 17.6089 34.1823C16.3081 34.855 15.1971 35.1097 14.2318 34.9564C13.8453 34.895 13.8517 34.9027 14.005 34.6841C14.3332 34.2165 14.6647 33.5083 14.7706 33.049C14.802 32.9126 14.8201 32.801 14.8108 32.801C14.8015 32.801 14.6556 32.9045 14.4865 33.0311C13.9378 33.4418 13.3826 33.7761 12.6036 34.1648C11.7949 34.5684 11.2482 34.789 10.7043 34.9313C10.5217 34.9791 10.3723 35.0315 10.3723 35.0479C10.3723 35.0873 10.7139 35.1832 11.1334 35.2617C11.3198 35.2966 11.4784 35.3313 11.4859 35.3389C11.509 35.3623 10.9313 35.5955 10.6336 35.6829C9.72293 35.9504 8.61827 36.0356 7.63849 35.9139ZM20.4232 22.7322C21.0139 22.6242 21.6731 22.329 22.1448 21.9612C23.0522 21.2537 23.6631 20.2094 23.9199 18.9268C24.1323 17.8661 24.1152 16.4777 23.8788 15.5815L23.8398 15.4335L23.2069 15.7092C21.4873 16.4583 19.7151 16.8875 18.0512 16.9578C17.0304 17.001 15.6311 16.8508 14.6104 16.5884C14.3926 16.5324 14.2084 16.4926 14.2013 16.4998C14.1684 16.5331 14.3351 17.3619 14.4572 17.7725C15.0145 19.6468 15.9827 21.091 17.2672 21.9639C17.6095 22.1966 17.9331 22.3546 18.4151 22.5244C19.1433 22.7809 19.7901 22.8479 20.4232 22.7322ZM15.0137 15.525C15.9665 15.2738 16.7257 14.3516 16.9261 13.2022C16.9888 12.8425 16.9585 12.1258 16.8652 11.7619C16.7642 11.3678 16.4783 10.8004 16.2249 10.4912C15.9501 10.1558 15.521 9.84406 15.1635 9.72C14.7852 9.58875 14.2008 9.58886 13.8221 9.72024C13.4712 9.842 13.1408 10.0632 12.8579 10.3659C12.2946 10.9685 12.0141 11.7189 12.0147 12.621C12.0155 13.7281 12.4932 14.679 13.3243 15.2275C13.8149 15.5514 14.4737 15.6674 15.0137 15.525ZM23.404 14.4492C24.0078 14.2603 24.455 13.8595 24.7448 13.2472C24.9809 12.7486 25.0271 12.5282 25.0227 11.9247C25.0195 11.4952 25.0029 11.3667 24.916 11.0994C24.6441 10.2629 24.0427 9.60932 23.3484 9.39584C23.1181 9.32505 22.9997 9.31318 22.6881 9.32968C22.3445 9.34787 22.2765 9.36574 21.9739 9.51751C21.4163 9.7972 21.0159 10.291 20.7982 10.9675C20.6611 11.3938 20.6259 12.1188 20.7202 12.5758C20.8032 12.9781 21.0947 13.5696 21.3486 13.8508C21.882 14.4415 22.683 14.6747 23.404 14.4492ZM13.0914 8.99727C13.7848 8.64613 14.4645 8.56184 15.0868 8.74981C15.2585 8.80168 15.4093 8.83372 15.4218 8.82103C15.4718 8.77041 15.2792 8.4356 15.1092 8.27781C14.7118 7.90883 14.1149 7.83458 13.5805 8.08768C13.1397 8.29648 12.8277 8.64653 12.7629 9.00482C12.7478 9.08875 12.7443 9.15742 12.7553 9.15742C12.7662 9.15742 12.9175 9.08535 13.0914 8.99727ZM21.6388 8.61953C22.0844 8.40026 22.6667 8.37534 23.3538 8.54612C23.5395 8.59226 23.6996 8.62172 23.7096 8.61158C23.7605 8.56011 23.6061 8.26519 23.4405 8.09762C22.9612 7.61248 22.0481 7.63475 21.5451 8.14384C21.3969 8.29387 21.2042 8.7206 21.2505 8.79638C21.2651 8.82032 21.3176 8.80772 21.3817 8.76489C21.4405 8.72563 21.5562 8.66021 21.6388 8.61953ZM26.9508 23.217C26.9782 23.1448 27.1555 22.2033 27.219 21.7931C27.3094 21.209 27.4188 19.9712 27.4661 18.9955L27.515 17.9884L27.8588 17.7145C28.0478 17.5639 28.385 17.2571 28.608 17.0328C29.3404 16.2961 29.6558 15.6234 29.7916 14.5088C29.8595 13.9508 30.0226 13.6328 30.3363 13.4468C30.7149 13.2222 31.231 13.3445 31.6252 13.7523C32.0592 14.2013 32.1799 14.598 32.177 15.5668C32.1749 16.2896 32.0785 16.8813 31.8418 17.6243C31.3014 19.3203 29.5337 21.5995 27.8736 22.7406C27.6497 22.8945 26.9882 23.2784 26.947 23.2784C26.9363 23.2784 26.938 23.2508 26.9508 23.217Z" fill="#FACC16"/>
</svg>
